<svg width="58" height="58" viewBox="0 0 58 58" fill="none" xmlns="http://www.w3.org/2000/svg">
<path d="M29 0C32.8456 0 36.5338 1.52767 39.253 4.24695C41.9723 6.96623 43.5 10.6544 43.5 14.5C43.5 18.3456 41.9723 22.0338 39.253 24.753C36.5338 27.4723 32.8456 29 29 29C25.1544 29 21.4662 27.4723 18.747 24.753C16.0277 22.0338 14.5 18.3456 14.5 14.5C14.5 10.6544 16.0277 6.96623 18.747 4.24695C21.4662 1.52767 25.1544 0 29 0ZM29 7.25C27.0772 7.25 25.2331 8.01384 23.8735 9.37348C22.5138 10.7331 21.75 12.5772 21.75 14.5C21.75 16.4228 22.5138 18.2669 23.8735 19.6265C25.2331 20.9862 27.0772 21.75 29 21.75C30.9228 21.75 32.7669 20.9862 34.1265 19.6265C35.4862 18.2669 36.25 16.4228 36.25 14.5C36.25 12.5772 35.4862 10.7331 34.1265 9.37348C32.7669 8.01384 30.9228 7.25 29 7.25ZM29 32.625C38.6788 32.625 58 37.4463 58 47.125V58H0V47.125C0 37.4463 19.3213 32.625 29 32.625ZM29 39.5125C18.2338 39.5125 6.8875 44.805 6.8875 47.125V51.1125H51.1125V47.125C51.1125 44.805 39.7663 39.5125 29 39.5125Z" fill="white"/>
</svg>
